<svg width="25" height="23" viewBox="0 0 25 23" fill="none" xmlns="http://www.w3.org/2000/svg">
  <path
    d="M23.176 2.96247C21.9429 1.61633 20.2323 0.875 18.3594 0.875C15.7252 0.875 14.0575 2.38867 13.1223 3.65852C12.8797 3.98803 12.6733 4.31843 12.5 4.62934C12.3267 4.31843 12.1204 3.98803 11.8777 3.65852C10.9425 2.38867 9.27481 0.875 6.64062 0.875C4.76768 0.875 3.05708 1.61638 1.82397 2.96252C0.647803 4.24665 0 5.96646 0 7.80513C0 9.80659 0.812158 11.6681 2.55591 13.6634C4.11436 15.4468 6.3564 17.285 8.95264 19.4135C9.92007 20.2067 10.9205 21.027 11.9856 21.9236L12.0176 21.9506C12.1557 22.0669 12.3278 22.125 12.5 22.125C12.6722 22.125 12.8443 22.0668 12.9824 21.9506L13.0144 21.9236C14.0795 21.027 15.0799 20.2068 16.0475 19.4135C18.6436 17.285 20.8856 15.4468 22.4441 13.6634C24.1878 11.6681 25 9.80659 25 7.80513C25 5.96646 24.3522 4.24665 23.176 2.96247ZM15.0973 18.3408C14.2633 19.0246 13.405 19.7283 12.5 20.4852C11.595 19.7284 10.7367 19.0246 9.90254 18.3407C4.82153 14.1749 1.46484 11.4229 1.46484 7.80513C1.46484 6.30979 1.98267 4.92089 2.92295 3.89435C3.87402 2.85616 5.19429 2.28438 6.64062 2.28438C8.64888 2.28438 9.94707 3.47473 10.6824 4.47332C11.342 5.36893 11.6862 6.27178 11.8036 6.61835C11.9018 6.90844 12.1829 7.10477 12.5 7.10477C12.8171 7.10477 13.0982 6.90844 13.1964 6.61835C13.3138 6.27178 13.658 5.36893 14.3176 4.47328C15.0529 3.47473 16.3511 2.28438 18.3594 2.28438C19.8057 2.28438 21.126 2.85616 22.077 3.89435C23.0173 4.92089 23.5352 6.30979 23.5352 7.80513C23.5352 11.4229 20.1785 14.1749 15.0973 18.3408Z"
    fill="black"/>
</svg>
